<svg xmlns="http://www.w3.org/2000/svg" xmlns:xlink="http://www.w3.org/1999/xlink" width="133" zoomAndPan="magnify" viewBox="0 0 99.75 130.499996" height="174" preserveAspectRatio="xMidYMid meet" version="1.0"><defs><g/><clipPath id="7b023a3e7a"><path d="M 0.0664062 0 L 99.433594 0 L 99.433594 130 L 0.0664062 130 Z M 0.0664062 0 " clip-rule="nonzero"/></clipPath><clipPath id="e0205d53ee"><path d="M 8.648438 0 L 90.085938 0 L 90.085938 89.65625 L 8.648438 89.65625 Z M 8.648438 0 " clip-rule="nonzero"/></clipPath></defs><g clip-path="url(#7b023a3e7a)"><path fill="#ffffff" d="M 0.0664062 0 L 99.433594 0 L 99.433594 130 L 0.0664062 130 Z M 0.0664062 0 " fill-opacity="1" fill-rule="nonzero"/></g><g clip-path="url(#e0205d53ee)"><path fill="#000000" d="M 88.730469 19.027344 C 88.550781 19.027344 88.375 19.0625 88.210938 19.132812 C 88.042969 19.199219 87.898438 19.296875 87.769531 19.425781 C 87.644531 19.554688 87.542969 19.699219 87.476562 19.867188 C 87.40625 20.03125 87.371094 20.207031 87.371094 20.386719 L 87.371094 82.847656 C 87.371094 83.117188 87.347656 83.382812 87.292969 83.644531 C 87.242188 83.90625 87.164062 84.160156 87.0625 84.40625 C 86.960938 84.652344 86.832031 84.890625 86.683594 85.109375 C 86.535156 85.332031 86.367188 85.539062 86.179688 85.726562 C 85.988281 85.917969 85.785156 86.085938 85.5625 86.234375 C 85.339844 86.382812 85.105469 86.507812 84.859375 86.613281 C 84.613281 86.714844 84.355469 86.792969 84.09375 86.84375 C 83.832031 86.894531 83.566406 86.921875 83.300781 86.921875 L 29.007812 86.921875 C 28.742188 86.921875 28.476562 86.894531 28.214844 86.84375 C 27.953125 86.792969 27.699219 86.714844 27.453125 86.613281 C 27.203125 86.507812 26.96875 86.382812 26.746094 86.234375 C 26.527344 86.085938 26.320312 85.917969 26.128906 85.726562 C 25.941406 85.539062 25.773438 85.332031 25.625 85.109375 C 25.476562 84.890625 25.351562 84.652344 25.25 84.40625 C 25.144531 84.160156 25.066406 83.90625 25.015625 83.644531 C 24.964844 83.382812 24.9375 83.117188 24.9375 82.847656 L 76.515625 82.847656 C 76.960938 82.847656 77.402344 82.804688 77.835938 82.71875 C 78.273438 82.628906 78.699219 82.5 79.109375 82.328125 C 79.523438 82.160156 79.914062 81.949219 80.28125 81.703125 C 80.652344 81.453125 80.996094 81.171875 81.3125 80.859375 C 81.625 80.542969 81.90625 80.199219 82.15625 79.828125 C 82.402344 79.460938 82.613281 79.066406 82.78125 78.65625 C 82.953125 78.246094 83.082031 77.820312 83.167969 77.382812 C 83.257812 76.945312 83.300781 76.503906 83.300781 76.058594 L 83.300781 28.535156 C 83.300781 28.355469 83.265625 28.179688 83.199219 28.015625 C 83.128906 27.847656 83.03125 27.699219 82.902344 27.574219 C 82.777344 27.445312 82.628906 27.347656 82.464844 27.277344 C 82.296875 27.210938 82.125 27.175781 81.945312 27.175781 C 81.761719 27.175781 81.589844 27.210938 81.425781 27.277344 C 81.257812 27.347656 81.109375 27.445312 80.984375 27.574219 C 80.855469 27.699219 80.757812 27.847656 80.691406 28.015625 C 80.621094 28.179688 80.585938 28.355469 80.585938 28.535156 L 80.585938 76.058594 C 80.585938 76.328125 80.558594 76.589844 80.507812 76.855469 C 80.453125 77.117188 80.378906 77.371094 80.273438 77.617188 C 80.171875 77.863281 80.046875 78.097656 79.898438 78.320312 C 79.75 78.542969 79.582031 78.75 79.390625 78.9375 C 79.203125 79.128906 78.996094 79.296875 78.777344 79.445312 C 78.554688 79.59375 78.320312 79.71875 78.070312 79.820312 C 77.824219 79.925781 77.570312 80 77.308594 80.054688 C 77.046875 80.105469 76.78125 80.132812 76.515625 80.132812 L 22.222656 80.132812 C 21.953125 80.132812 21.691406 80.105469 21.429688 80.054688 C 21.167969 80 20.910156 79.925781 20.664062 79.820312 C 20.417969 79.71875 20.183594 79.59375 19.960938 79.445312 C 19.738281 79.296875 19.535156 79.128906 19.34375 78.9375 C 19.15625 78.75 18.988281 78.542969 18.839844 78.320312 C 18.691406 78.097656 18.5625 77.863281 18.460938 77.617188 C 18.359375 77.371094 18.28125 77.117188 18.230469 76.855469 C 18.175781 76.589844 18.152344 76.328125 18.152344 76.058594 L 69.726562 76.058594 C 70.171875 76.058594 70.613281 76.015625 71.050781 75.929688 C 71.488281 75.839844 71.914062 75.710938 72.324219 75.539062 C 72.734375 75.371094 73.125 75.160156 73.496094 74.914062 C 73.867188 74.664062 74.210938 74.382812 74.523438 74.070312 C 74.839844 73.753906 75.121094 73.410156 75.367188 73.039062 C 75.617188 72.667969 75.824219 72.277344 75.996094 71.867188 C 76.167969 71.457031 76.296875 71.03125 76.382812 70.59375 C 76.46875 70.15625 76.515625 69.714844 76.515625 69.269531 L 76.515625 35.324219 C 76.515625 35.144531 76.480469 34.96875 76.410156 34.804688 C 76.34375 34.636719 76.242188 34.488281 76.117188 34.363281 C 75.988281 34.234375 75.84375 34.136719 75.675781 34.070312 C 75.511719 34 75.335938 33.964844 75.15625 33.964844 C 74.976562 33.964844 74.804688 34 74.636719 34.070312 C 74.472656 34.136719 74.324219 34.234375 74.195312 34.363281 C 74.070312 34.488281 73.972656 34.636719 73.902344 34.804688 C 73.835938 34.96875 73.800781 35.144531 73.800781 35.324219 L 73.800781 69.269531 C 73.800781 69.539062 73.773438 69.800781 73.722656 70.066406 C 73.667969 70.328125 73.589844 70.582031 73.488281 70.828125 C 73.386719 71.074219 73.261719 71.308594 73.113281 71.53125 C 72.964844 71.753906 72.792969 71.960938 72.605469 72.148438 C 72.417969 72.339844 72.210938 72.507812 71.988281 72.65625 C 71.765625 72.804688 71.53125 72.929688 71.285156 73.03125 C 71.039062 73.136719 70.785156 73.210938 70.523438 73.265625 C 70.261719 73.316406 69.996094 73.34375 69.726562 73.34375 L 15.4375 73.34375 C 15.167969 73.34375 14.902344 73.316406 14.640625 73.265625 C 14.378906 73.210938 14.125 73.136719 13.878906 73.03125 C 13.632812 72.929688 13.398438 72.804688 13.175781 72.65625 C 12.953125 72.507812 12.746094 72.339844 12.558594 72.148438 C 12.367188 71.960938 12.199219 71.753906 12.050781 71.53125 C 11.902344 71.308594 11.777344 71.074219 11.675781 70.828125 C 11.574219 70.582031 11.496094 70.328125 11.441406 70.066406 C 11.390625 69.800781 11.363281 69.539062 11.363281 69.269531 L 11.363281 6.808594 C 11.363281 6.539062 11.390625 6.273438 11.441406 6.011719 C 11.496094 5.75 11.574219 5.496094 11.675781 5.25 C 11.777344 5.003906 11.902344 4.769531 12.050781 4.546875 C 12.199219 4.324219 12.367188 4.117188 12.558594 3.929688 C 12.746094 3.738281 12.953125 3.570312 13.175781 3.421875 C 13.398438 3.273438 13.632812 3.148438 13.878906 3.046875 C 14.125 2.941406 14.378906 2.867188 14.640625 2.8125 C 14.902344 2.761719 15.167969 2.734375 15.4375 2.734375 L 69.726562 2.734375 C 69.996094 2.734375 70.261719 2.761719 70.523438 2.8125 C 70.785156 2.867188 71.039062 2.941406 71.285156 3.046875 C 71.53125 3.148438 71.765625 3.273438 71.988281 3.421875 C 72.210938 3.570312 72.417969 3.738281 72.605469 3.929688 C 72.792969 4.117188 72.964844 4.324219 73.113281 4.546875 C 73.261719 4.769531 73.386719 5.003906 73.488281 5.25 C 73.589844 5.496094 73.667969 5.75 73.722656 6.011719 C 73.773438 6.273438 73.800781 6.539062 73.800781 6.808594 L 73.800781 10.882812 C 73.800781 11.0625 73.835938 11.234375 73.902344 11.402344 C 73.972656 11.566406 74.070312 11.714844 74.195312 11.839844 C 74.324219 11.96875 74.472656 12.066406 74.636719 12.136719 C 74.804688 12.203125 74.976562 12.238281 75.15625 12.238281 C 75.335938 12.238281 75.511719 12.203125 75.675781 12.136719 C 75.84375 12.066406 75.988281 11.96875 76.117188 11.839844 C 76.242188 11.714844 76.34375 11.566406 76.410156 11.402344 C 76.480469 11.234375 76.515625 11.0625 76.515625 10.882812 L 76.515625 6.808594 C 76.515625 6.363281 76.46875 5.921875 76.382812 5.484375 C 76.296875 5.046875 76.167969 4.621094 75.996094 4.210938 C 75.824219 3.800781 75.617188 3.40625 75.367188 3.039062 C 75.121094 2.667969 74.839844 2.324219 74.523438 2.007812 C 74.210938 1.695312 73.867188 1.414062 73.496094 1.164062 C 73.125 0.917969 72.734375 0.707031 72.324219 0.535156 C 71.914062 0.367188 71.488281 0.238281 71.050781 0.148438 C 70.613281 0.0625 70.171875 0.0195312 69.726562 0.0195312 L 15.4375 0.0195312 C 14.992188 0.0195312 14.550781 0.0625 14.113281 0.148438 C 13.675781 0.238281 13.25 0.367188 12.839844 0.535156 C 12.429688 0.707031 12.039062 0.917969 11.667969 1.164062 C 11.296875 1.414062 10.953125 1.695312 10.640625 2.007812 C 10.324219 2.324219 10.042969 2.667969 9.796875 3.039062 C 9.546875 3.40625 9.339844 3.800781 9.167969 4.210938 C 8.996094 4.621094 8.867188 5.046875 8.78125 5.484375 C 8.695312 5.921875 8.648438 6.363281 8.648438 6.808594 L 8.648438 69.269531 C 8.648438 69.714844 8.695312 70.15625 8.78125 70.59375 C 8.867188 71.03125 8.996094 71.457031 9.167969 71.867188 C 9.339844 72.277344 9.546875 72.667969 9.796875 73.039062 C 10.042969 73.410156 10.324219 73.753906 10.640625 74.070312 C 10.953125 74.382812 11.296875 74.664062 11.667969 74.914062 C 12.039062 75.160156 12.429688 75.371094 12.839844 75.539062 C 13.25 75.710938 13.675781 75.839844 14.113281 75.929688 C 14.550781 76.015625 14.992188 76.058594 15.4375 76.058594 C 15.4375 76.503906 15.480469 76.945312 15.566406 77.382812 C 15.65625 77.820312 15.785156 78.246094 15.953125 78.65625 C 16.125 79.066406 16.335938 79.460938 16.582031 79.828125 C 16.828125 80.199219 17.109375 80.542969 17.425781 80.859375 C 17.742188 81.171875 18.082031 81.453125 18.453125 81.703125 C 18.824219 81.949219 19.214844 82.160156 19.625 82.328125 C 20.039062 82.5 20.460938 82.628906 20.898438 82.71875 C 21.335938 82.804688 21.777344 82.847656 22.222656 82.847656 C 22.222656 83.292969 22.265625 83.734375 22.355469 84.171875 C 22.441406 84.609375 22.570312 85.035156 22.742188 85.445312 C 22.910156 85.859375 23.121094 86.25 23.367188 86.617188 C 23.617188 86.988281 23.898438 87.332031 24.210938 87.648438 C 24.527344 87.960938 24.871094 88.242188 25.242188 88.492188 C 25.609375 88.738281 26 88.949219 26.414062 89.121094 C 26.824219 89.289062 27.25 89.417969 27.683594 89.507812 C 28.121094 89.59375 28.5625 89.636719 29.007812 89.636719 L 83.300781 89.636719 C 83.746094 89.636719 84.1875 89.59375 84.625 89.507812 C 85.0625 89.417969 85.484375 89.289062 85.898438 89.121094 C 86.308594 88.949219 86.699219 88.738281 87.070312 88.492188 C 87.441406 88.242188 87.78125 87.960938 88.097656 87.648438 C 88.414062 87.332031 88.695312 86.988281 88.941406 86.617188 C 89.1875 86.25 89.398438 85.859375 89.570312 85.445312 C 89.738281 85.035156 89.867188 84.609375 89.957031 84.171875 C 90.042969 83.734375 90.085938 83.292969 90.085938 82.847656 L 90.085938 20.386719 C 90.085938 20.207031 90.054688 20.03125 89.984375 19.867188 C 89.914062 19.699219 89.816406 19.554688 89.691406 19.425781 C 89.5625 19.296875 89.414062 19.199219 89.25 19.132812 C 89.082031 19.0625 88.910156 19.027344 88.730469 19.027344 Z M 88.730469 19.027344 " fill-opacity="1" fill-rule="nonzero"/></g><path fill="#000000" d="M 54.898438 37.6875 L 52.183594 44.3125 C 52.082031 44.5625 52.058594 44.820312 52.109375 45.085938 C 52.160156 45.351562 52.28125 45.578125 52.46875 45.773438 C 52.65625 45.96875 52.878906 46.09375 53.144531 46.152344 C 53.40625 46.210938 53.664062 46.195312 53.917969 46.101562 L 60.703125 43.546875 C 60.886719 43.480469 61.046875 43.375 61.1875 43.238281 L 87.652344 16.757812 C 87.847656 16.5625 88.023438 16.347656 88.175781 16.117188 C 88.332031 15.882812 88.460938 15.640625 88.566406 15.382812 C 88.671875 15.125 88.75 14.863281 88.804688 14.589844 C 88.859375 14.316406 88.886719 14.042969 88.886719 13.765625 C 88.886719 13.488281 88.855469 13.210938 88.804688 12.9375 C 88.75 12.667969 88.667969 12.402344 88.5625 12.144531 C 88.457031 11.890625 88.324219 11.644531 88.171875 11.414062 C 88.015625 11.183594 87.839844 10.96875 87.644531 10.773438 C 87.449219 10.578125 87.234375 10.402344 87.003906 10.246094 C 86.773438 10.09375 86.53125 9.960938 86.273438 9.855469 C 86.015625 9.75 85.753906 9.667969 85.480469 9.613281 C 85.207031 9.558594 84.933594 9.53125 84.65625 9.53125 C 84.378906 9.53125 84.101562 9.558594 83.832031 9.613281 C 83.558594 9.664062 83.292969 9.746094 83.035156 9.851562 C 82.78125 9.957031 82.535156 10.085938 82.304688 10.242188 C 82.074219 10.394531 81.859375 10.570312 81.664062 10.765625 L 55.195312 37.242188 C 55.066406 37.371094 54.96875 37.519531 54.898438 37.6875 Z M 57.308594 38.972656 L 83.582031 12.683594 C 83.722656 12.542969 83.890625 12.433594 84.074219 12.355469 C 84.261719 12.277344 84.457031 12.238281 84.65625 12.238281 C 84.859375 12.238281 85.054688 12.277344 85.238281 12.355469 C 85.425781 12.433594 85.589844 12.542969 85.734375 12.6875 C 85.875 12.828125 85.984375 12.992188 86.0625 13.179688 C 86.140625 13.367188 86.179688 13.558594 86.179688 13.761719 C 86.179688 13.964844 86.140625 14.15625 86.0625 14.34375 C 85.988281 14.53125 85.875 14.695312 85.734375 14.839844 L 59.476562 41.109375 L 55.875 42.460938 Z M 57.308594 38.972656 " fill-opacity="1" fill-rule="nonzero"/><path fill="#000000" d="M 19.507812 14.953125 L 65.65625 14.953125 C 65.835938 14.953125 66.007812 14.921875 66.175781 14.851562 C 66.339844 14.78125 66.488281 14.683594 66.617188 14.558594 C 66.742188 14.429688 66.839844 14.28125 66.910156 14.117188 C 66.980469 13.949219 67.011719 13.777344 67.011719 13.597656 C 67.011719 13.417969 66.980469 13.242188 66.910156 13.078125 C 66.839844 12.910156 66.742188 12.765625 66.617188 12.636719 C 66.488281 12.507812 66.339844 12.410156 66.175781 12.34375 C 66.007812 12.273438 65.835938 12.238281 65.65625 12.238281 L 19.507812 12.238281 C 19.328125 12.238281 19.15625 12.273438 18.988281 12.34375 C 18.820312 12.410156 18.675781 12.507812 18.546875 12.636719 C 18.421875 12.765625 18.324219 12.910156 18.253906 13.078125 C 18.183594 13.242188 18.152344 13.417969 18.152344 13.597656 C 18.152344 13.777344 18.183594 13.949219 18.253906 14.117188 C 18.324219 14.28125 18.421875 14.429688 18.546875 14.558594 C 18.675781 14.683594 18.820312 14.78125 18.988281 14.851562 C 19.15625 14.921875 19.328125 14.953125 19.507812 14.953125 Z M 19.507812 14.953125 " fill-opacity="1" fill-rule="nonzero"/><path fill="#000000" d="M 19.507812 23.101562 L 48.011719 23.101562 C 48.191406 23.101562 48.363281 23.066406 48.53125 23 C 48.695312 22.929688 48.84375 22.832031 48.972656 22.703125 C 49.097656 22.578125 49.195312 22.429688 49.265625 22.265625 C 49.332031 22.097656 49.367188 21.925781 49.367188 21.746094 C 49.367188 21.5625 49.332031 21.390625 49.265625 21.222656 C 49.195312 21.058594 49.097656 20.910156 48.972656 20.785156 C 48.84375 20.65625 48.695312 20.558594 48.53125 20.488281 C 48.363281 20.421875 48.191406 20.386719 48.011719 20.386719 L 19.507812 20.386719 C 19.328125 20.386719 19.15625 20.421875 18.988281 20.488281 C 18.820312 20.558594 18.675781 20.65625 18.546875 20.785156 C 18.421875 20.910156 18.324219 21.058594 18.253906 21.222656 C 18.183594 21.390625 18.152344 21.5625 18.152344 21.746094 C 18.152344 21.925781 18.183594 22.097656 18.253906 22.265625 C 18.324219 22.429688 18.421875 22.578125 18.546875 22.703125 C 18.675781 22.832031 18.820312 22.929688 18.988281 23 C 19.15625 23.066406 19.328125 23.101562 19.507812 23.101562 Z M 19.507812 23.101562 " fill-opacity="1" fill-rule="nonzero"/><path fill="#000000" d="M 19.507812 31.25 L 48.011719 31.25 C 48.191406 31.25 48.363281 31.214844 48.53125 31.144531 C 48.695312 31.078125 48.84375 30.980469 48.972656 30.851562 C 49.097656 30.722656 49.195312 30.578125 49.265625 30.410156 C 49.332031 30.246094 49.367188 30.070312 49.367188 29.890625 C 49.367188 29.710938 49.332031 29.539062 49.265625 29.371094 C 49.195312 29.207031 49.097656 29.058594 48.972656 28.929688 C 48.84375 28.804688 48.695312 28.707031 48.53125 28.636719 C 48.363281 28.566406 48.191406 28.535156 48.011719 28.535156 L 19.507812 28.535156 C 19.328125 28.535156 19.15625 28.566406 18.988281 28.636719 C 18.820312 28.707031 18.675781 28.804688 18.546875 28.929688 C 18.421875 29.058594 18.324219 29.207031 18.253906 29.371094 C 18.183594 29.539062 18.152344 29.710938 18.152344 29.890625 C 18.152344 30.070312 18.183594 30.246094 18.253906 30.410156 C 18.324219 30.578125 18.421875 30.722656 18.546875 30.851562 C 18.675781 30.980469 18.820312 31.078125 18.988281 31.144531 C 19.15625 31.214844 19.328125 31.25 19.507812 31.25 Z M 19.507812 31.25 " fill-opacity="1" fill-rule="nonzero"/><path fill="#000000" d="M 19.507812 39.398438 L 48.011719 39.398438 C 48.191406 39.398438 48.363281 39.363281 48.53125 39.292969 C 48.695312 39.222656 48.84375 39.125 48.972656 39 C 49.097656 38.871094 49.195312 38.726562 49.265625 38.558594 C 49.332031 38.390625 49.367188 38.21875 49.367188 38.039062 C 49.367188 37.859375 49.332031 37.683594 49.265625 37.519531 C 49.195312 37.351562 49.097656 37.207031 48.972656 37.078125 C 48.84375 36.953125 48.695312 36.851562 48.53125 36.785156 C 48.363281 36.714844 48.191406 36.679688 48.011719 36.679688 L 19.507812 36.679688 C 19.328125 36.679688 19.15625 36.714844 18.988281 36.785156 C 18.820312 36.851562 18.675781 36.953125 18.546875 37.078125 C 18.421875 37.207031 18.324219 37.351562 18.253906 37.519531 C 18.183594 37.683594 18.152344 37.859375 18.152344 38.039062 C 18.152344 38.21875 18.183594 38.390625 18.253906 38.558594 C 18.324219 38.726562 18.421875 38.871094 18.546875 39 C 18.675781 39.125 18.820312 39.222656 18.988281 39.292969 C 19.15625 39.363281 19.328125 39.398438 19.507812 39.398438 Z M 19.507812 39.398438 " fill-opacity="1" fill-rule="nonzero"/><path fill="#000000" d="M 19.507812 47.542969 L 48.011719 47.542969 C 48.191406 47.542969 48.363281 47.507812 48.53125 47.441406 C 48.695312 47.371094 48.84375 47.273438 48.972656 47.144531 C 49.097656 47.019531 49.195312 46.871094 49.265625 46.707031 C 49.332031 46.539062 49.367188 46.367188 49.367188 46.1875 C 49.367188 46.007812 49.332031 45.832031 49.265625 45.667969 C 49.195312 45.5 49.097656 45.351562 48.972656 45.226562 C 48.84375 45.097656 48.695312 45 48.53125 44.929688 C 48.363281 44.863281 48.191406 44.828125 48.011719 44.828125 L 19.507812 44.828125 C 19.328125 44.828125 19.15625 44.863281 18.988281 44.929688 C 18.820312 45 18.675781 45.097656 18.546875 45.226562 C 18.421875 45.351562 18.324219 45.5 18.253906 45.667969 C 18.183594 45.832031 18.152344 46.007812 18.152344 46.1875 C 18.152344 46.367188 18.183594 46.539062 18.253906 46.707031 C 18.324219 46.871094 18.421875 47.019531 18.546875 47.144531 C 18.675781 47.273438 18.820312 47.371094 18.988281 47.441406 C 19.15625 47.507812 19.328125 47.542969 19.507812 47.542969 Z M 19.507812 47.542969 " fill-opacity="1" fill-rule="nonzero"/><path fill="#000000" d="M 65.65625 52.976562 L 19.507812 52.976562 C 19.328125 52.976562 19.15625 53.011719 18.988281 53.078125 C 18.820312 53.148438 18.675781 53.246094 18.546875 53.375 C 18.421875 53.5 18.324219 53.648438 18.253906 53.8125 C 18.183594 53.980469 18.152344 54.152344 18.152344 54.332031 C 18.152344 54.511719 18.183594 54.6875 18.253906 54.851562 C 18.324219 55.019531 18.421875 55.167969 18.546875 55.292969 C 18.675781 55.421875 18.820312 55.519531 18.988281 55.589844 C 19.15625 55.65625 19.328125 55.691406 19.507812 55.691406 L 65.65625 55.691406 C 65.835938 55.691406 66.007812 55.65625 66.175781 55.589844 C 66.339844 55.519531 66.488281 55.421875 66.617188 55.292969 C 66.742188 55.167969 66.839844 55.019531 66.910156 54.851562 C 66.980469 54.6875 67.011719 54.511719 67.011719 54.332031 C 67.011719 54.152344 66.980469 53.980469 66.910156 53.8125 C 66.839844 53.648438 66.742188 53.5 66.617188 53.375 C 66.488281 53.246094 66.339844 53.148438 66.175781 53.078125 C 66.007812 53.011719 65.835938 52.976562 65.65625 52.976562 Z M 65.65625 52.976562 " fill-opacity="1" fill-rule="nonzero"/><path fill="#000000" d="M 65.65625 61.121094 L 19.507812 61.121094 C 19.328125 61.121094 19.15625 61.15625 18.988281 61.226562 C 18.820312 61.296875 18.675781 61.394531 18.546875 61.519531 C 18.421875 61.648438 18.324219 61.792969 18.253906 61.960938 C 18.183594 62.128906 18.152344 62.300781 18.152344 62.480469 C 18.152344 62.660156 18.183594 62.835938 18.253906 63 C 18.324219 63.167969 18.421875 63.3125 18.546875 63.441406 C 18.675781 63.566406 18.820312 63.667969 18.988281 63.734375 C 19.15625 63.804688 19.328125 63.839844 19.507812 63.839844 L 65.65625 63.839844 C 65.835938 63.839844 66.007812 63.804688 66.175781 63.734375 C 66.339844 63.667969 66.488281 63.566406 66.617188 63.441406 C 66.742188 63.3125 66.839844 63.167969 66.910156 63 C 66.980469 62.835938 67.011719 62.660156 67.011719 62.480469 C 67.011719 62.300781 66.980469 62.128906 66.910156 61.960938 C 66.839844 61.792969 66.742188 61.648438 66.617188 61.519531 C 66.488281 61.394531 66.339844 61.296875 66.175781 61.226562 C 66.007812 61.15625 65.835938 61.121094 65.65625 61.121094 Z M 65.65625 61.121094 " fill-opacity="1" fill-rule="nonzero"/><g fill="#000000" fill-opacity="1"><g transform="translate(5.912938, 117.070104)"><g><path d="M 9.078125 -7.71875 C 9.484375 -7.457031 9.828125 -7.144531 10.109375 -6.78125 C 10.398438 -6.425781 10.628906 -5.992188 10.796875 -5.484375 C 10.972656 -4.910156 11.066406 -4.332031 11.078125 -3.75 C 11.085938 -3.175781 10.984375 -2.640625 10.765625 -2.140625 C 10.546875 -1.648438 10.203125 -1.21875 9.734375 -0.84375 C 9.265625 -0.476562 8.65625 -0.21875 7.90625 -0.0625 C 7.5 0.03125 7.023438 0.101562 6.484375 0.15625 C 5.941406 0.21875 5.453125 0.25 5.015625 0.25 C 4.472656 0.257812 3.910156 0.257812 3.328125 0.25 C 2.753906 0.25 2.195312 0.191406 1.65625 0.078125 C 1.414062 0.015625 1.242188 -0.101562 1.140625 -0.28125 C 1.035156 -0.457031 0.960938 -0.65625 0.921875 -0.875 C 0.867188 -1 0.84375 -1.125 0.84375 -1.25 L 0.84375 -13.140625 C 0.84375 -13.523438 0.921875 -13.828125 1.078125 -14.046875 C 1.234375 -14.265625 1.441406 -14.425781 1.703125 -14.53125 C 1.972656 -14.632812 2.273438 -14.695312 2.609375 -14.71875 C 2.953125 -14.738281 3.300781 -14.75 3.65625 -14.75 C 3.9375 -14.75 4.21875 -14.75 4.5 -14.75 C 4.789062 -14.757812 5.082031 -14.757812 5.375 -14.75 C 5.832031 -14.738281 6.304688 -14.703125 6.796875 -14.640625 C 7.296875 -14.578125 7.769531 -14.460938 8.21875 -14.296875 C 8.425781 -14.222656 8.648438 -14.125 8.890625 -14 C 9.128906 -13.882812 9.316406 -13.742188 9.453125 -13.578125 C 9.898438 -13.171875 10.234375 -12.695312 10.453125 -12.15625 C 10.671875 -11.625 10.765625 -11.082031 10.734375 -10.53125 C 10.703125 -9.976562 10.550781 -9.453125 10.28125 -8.953125 C 10.007812 -8.453125 9.609375 -8.039062 9.078125 -7.71875 Z M 5.421875 -2.171875 C 5.847656 -2.203125 6.285156 -2.25 6.734375 -2.3125 C 7.179688 -2.382812 7.488281 -2.519531 7.65625 -2.71875 C 7.832031 -2.9375 7.957031 -3.195312 8.03125 -3.5 C 8.113281 -3.800781 8.140625 -4.109375 8.109375 -4.421875 C 8.078125 -4.734375 7.984375 -5.03125 7.828125 -5.3125 C 7.679688 -5.601562 7.492188 -5.832031 7.265625 -6 C 6.941406 -6.25 6.566406 -6.410156 6.140625 -6.484375 C 5.722656 -6.566406 5.316406 -6.609375 4.921875 -6.609375 C 4.722656 -6.609375 4.539062 -6.601562 4.375 -6.59375 C 4.21875 -6.59375 4.078125 -6.570312 3.953125 -6.53125 C 3.835938 -6.5 3.753906 -6.429688 3.703125 -6.328125 C 3.648438 -6.234375 3.625 -6.09375 3.625 -5.90625 C 3.644531 -5.539062 3.640625 -5.175781 3.609375 -4.8125 C 3.585938 -4.445312 3.578125 -4.097656 3.578125 -3.765625 C 3.578125 -3.566406 3.570312 -3.351562 3.5625 -3.125 C 3.5625 -2.894531 3.632812 -2.703125 3.78125 -2.546875 C 3.9375 -2.398438 4.160156 -2.296875 4.453125 -2.234375 C 4.742188 -2.179688 5.066406 -2.160156 5.421875 -2.171875 Z M 5.84375 -12.21875 C 5.40625 -12.226562 5.039062 -12.238281 4.75 -12.25 C 4.46875 -12.257812 4.242188 -12.238281 4.078125 -12.1875 C 3.921875 -12.132812 3.8125 -12.023438 3.75 -11.859375 C 3.6875 -11.703125 3.664062 -11.46875 3.6875 -11.15625 C 3.6875 -10.882812 3.679688 -10.617188 3.671875 -10.359375 C 3.660156 -10.109375 3.65625 -9.859375 3.65625 -9.609375 C 3.65625 -9.328125 3.742188 -9.117188 3.921875 -8.984375 C 4.109375 -8.847656 4.335938 -8.765625 4.609375 -8.734375 C 4.878906 -8.710938 5.164062 -8.710938 5.46875 -8.734375 C 5.769531 -8.765625 6.03125 -8.800781 6.25 -8.84375 C 6.757812 -8.925781 7.148438 -9.097656 7.421875 -9.359375 C 7.691406 -9.617188 7.847656 -10 7.890625 -10.5 C 7.941406 -11.125 7.773438 -11.554688 7.390625 -11.796875 C 7.015625 -12.046875 6.5 -12.1875 5.84375 -12.21875 Z M 5.84375 -12.21875 "/></g></g></g><g fill="#000000" fill-opacity="1"><g transform="translate(17.565344, 117.070104)"><g><path d="M 3.53125 -9.453125 C 3.988281 -9.679688 4.46875 -9.84375 4.96875 -9.9375 C 5.476562 -10.03125 5.976562 -10.050781 6.46875 -10 C 6.96875 -9.945312 7.453125 -9.816406 7.921875 -9.609375 C 8.390625 -9.398438 8.816406 -9.101562 9.203125 -8.71875 C 9.523438 -8.40625 9.800781 -8.019531 10.03125 -7.5625 C 10.269531 -7.113281 10.445312 -6.671875 10.5625 -6.234375 C 10.800781 -5.460938 10.835938 -4.6875 10.671875 -3.90625 C 10.503906 -3.125 10.21875 -2.398438 9.8125 -1.734375 C 9.613281 -1.429688 9.367188 -1.15625 9.078125 -0.90625 C 8.796875 -0.664062 8.5 -0.46875 8.1875 -0.3125 C 7.757812 -0.113281 7.300781 0.0195312 6.8125 0.09375 C 6.332031 0.164062 5.859375 0.179688 5.390625 0.140625 C 4.554688 0.0976562 3.820312 -0.109375 3.1875 -0.484375 C 2.550781 -0.859375 2.039062 -1.335938 1.65625 -1.921875 C 1.28125 -2.503906 1.03125 -3.171875 0.90625 -3.921875 C 0.789062 -4.671875 0.835938 -5.4375 1.046875 -6.21875 C 1.265625 -7.050781 1.585938 -7.726562 2.015625 -8.25 C 2.441406 -8.769531 2.945312 -9.171875 3.53125 -9.453125 Z M 4.15625 -6.65625 C 3.945312 -6.457031 3.785156 -6.210938 3.671875 -5.921875 C 3.566406 -5.628906 3.5 -5.328125 3.46875 -5.015625 C 3.445312 -4.703125 3.472656 -4.382812 3.546875 -4.0625 C 3.617188 -3.75 3.738281 -3.46875 3.90625 -3.21875 C 4.050781 -3.007812 4.300781 -2.832031 4.65625 -2.6875 C 5.019531 -2.550781 5.398438 -2.472656 5.796875 -2.453125 C 6.242188 -2.421875 6.632812 -2.539062 6.96875 -2.8125 C 7.300781 -3.082031 7.550781 -3.421875 7.71875 -3.828125 C 7.894531 -4.234375 7.976562 -4.671875 7.96875 -5.140625 C 7.957031 -5.617188 7.832031 -6.050781 7.59375 -6.4375 C 7.425781 -6.71875 7.191406 -6.925781 6.890625 -7.0625 C 6.585938 -7.195312 6.269531 -7.265625 5.9375 -7.265625 C 5.613281 -7.273438 5.289062 -7.226562 4.96875 -7.125 C 4.65625 -7.019531 4.382812 -6.863281 4.15625 -6.65625 Z M 4.15625 -6.65625 "/></g></g></g><g fill="#000000" fill-opacity="1"><g transform="translate(29.175911, 117.070104)"><g><path d="M 3.53125 -9.453125 C 3.988281 -9.679688 4.46875 -9.84375 4.96875 -9.9375 C 5.476562 -10.03125 5.976562 -10.050781 6.46875 -10 C 6.96875 -9.945312 7.453125 -9.816406 7.921875 -9.609375 C 8.390625 -9.398438 8.816406 -9.101562 9.203125 -8.71875 C 9.523438 -8.40625 9.800781 -8.019531 10.03125 -7.5625 C 10.269531 -7.113281 10.445312 -6.671875 10.5625 -6.234375 C 10.800781 -5.460938 10.835938 -4.6875 10.671875 -3.90625 C 10.503906 -3.125 10.21875 -2.398438 9.8125 -1.734375 C 9.613281 -1.429688 9.367188 -1.15625 9.078125 -0.90625 C 8.796875 -0.664062 8.5 -0.46875 8.1875 -0.3125 C 7.757812 -0.113281 7.300781 0.0195312 6.8125 0.09375 C 6.332031 0.164062 5.859375 0.179688 5.390625 0.140625 C 4.554688 0.0976562 3.820312 -0.109375 3.1875 -0.484375 C 2.550781 -0.859375 2.039062 -1.335938 1.65625 -1.921875 C 1.28125 -2.503906 1.03125 -3.171875 0.90625 -3.921875 C 0.789062 -4.671875 0.835938 -5.4375 1.046875 -6.21875 C 1.265625 -7.050781 1.585938 -7.726562 2.015625 -8.25 C 2.441406 -8.769531 2.945312 -9.171875 3.53125 -9.453125 Z M 4.15625 -6.65625 C 3.945312 -6.457031 3.785156 -6.210938 3.671875 -5.921875 C 3.566406 -5.628906 3.5 -5.328125 3.46875 -5.015625 C 3.445312 -4.703125 3.472656 -4.382812 3.546875 -4.0625 C 3.617188 -3.75 3.738281 -3.46875 3.90625 -3.21875 C 4.050781 -3.007812 4.300781 -2.832031 4.65625 -2.6875 C 5.019531 -2.550781 5.398438 -2.472656 5.796875 -2.453125 C 6.242188 -2.421875 6.632812 -2.539062 6.96875 -2.8125 C 7.300781 -3.082031 7.550781 -3.421875 7.71875 -3.828125 C 7.894531 -4.234375 7.976562 -4.671875 7.96875 -5.140625 C 7.957031 -5.617188 7.832031 -6.050781 7.59375 -6.4375 C 7.425781 -6.71875 7.191406 -6.925781 6.890625 -7.0625 C 6.585938 -7.195312 6.269531 -7.265625 5.9375 -7.265625 C 5.613281 -7.273438 5.289062 -7.226562 4.96875 -7.125 C 4.65625 -7.019531 4.382812 -6.863281 4.15625 -6.65625 Z M 4.15625 -6.65625 "/></g></g></g><g fill="#000000" fill-opacity="1"><g transform="translate(40.786477, 117.070104)"><g><path d="M 5 -4.8125 C 5.300781 -4.488281 5.523438 -4.253906 5.671875 -4.109375 C 5.828125 -3.960938 5.9375 -3.851562 6 -3.78125 C 6.0625 -3.71875 6.101562 -3.675781 6.125 -3.65625 C 6.15625 -3.644531 6.203125 -3.601562 6.265625 -3.53125 C 6.335938 -3.46875 6.453125 -3.359375 6.609375 -3.203125 C 6.765625 -3.054688 6.992188 -2.828125 7.296875 -2.515625 C 7.546875 -2.265625 7.75 -1.972656 7.90625 -1.640625 C 8.070312 -1.316406 8.054688 -0.960938 7.859375 -0.578125 C 7.753906 -0.390625 7.628906 -0.253906 7.484375 -0.171875 C 7.347656 -0.0976562 7.195312 -0.0664062 7.03125 -0.078125 C 6.875 -0.0976562 6.707031 -0.148438 6.53125 -0.234375 C 6.363281 -0.316406 6.195312 -0.421875 6.03125 -0.546875 C 5.707031 -0.785156 5.398438 -1.0625 5.109375 -1.375 C 4.816406 -1.6875 4.578125 -1.925781 4.390625 -2.09375 C 4.265625 -2.21875 4.1875 -2.300781 4.15625 -2.34375 C 4.132812 -2.375 4.109375 -2.398438 4.078125 -2.421875 C 4.046875 -2.441406 4.019531 -2.460938 4 -2.484375 C 3.894531 -2.585938 3.785156 -2.6875 3.671875 -2.78125 C 3.566406 -2.875 3.457031 -2.976562 3.34375 -3.09375 L 3.34375 -2.28125 C 3.34375 -2.125 3.351562 -2.015625 3.375 -1.953125 C 3.375 -1.804688 3.363281 -1.695312 3.34375 -1.625 C 3.300781 -1.476562 3.28125 -1.332031 3.28125 -1.1875 C 3.269531 -1.125 3.253906 -1.0625 3.234375 -1 C 3.222656 -0.9375 3.207031 -0.867188 3.1875 -0.796875 C 3.164062 -0.765625 3.148438 -0.742188 3.140625 -0.734375 C 3.140625 -0.722656 3.140625 -0.703125 3.140625 -0.671875 C 3.128906 -0.640625 3.117188 -0.613281 3.109375 -0.59375 C 3.097656 -0.582031 3.085938 -0.566406 3.078125 -0.546875 C 3.003906 -0.398438 2.890625 -0.265625 2.734375 -0.140625 C 2.472656 0.00390625 2.144531 0.046875 1.75 -0.015625 C 1.539062 -0.0546875 1.382812 -0.132812 1.28125 -0.25 C 1.15625 -0.332031 1.070312 -0.453125 1.03125 -0.609375 C 1 -0.679688 0.972656 -0.753906 0.953125 -0.828125 C 0.929688 -0.898438 0.90625 -0.972656 0.875 -1.046875 C 0.851562 -1.117188 0.84375 -1.1875 0.84375 -1.25 C 0.84375 -1.3125 0.84375 -1.363281 0.84375 -1.40625 L 0.84375 -13.3125 C 0.84375 -13.394531 0.84375 -13.476562 0.84375 -13.5625 C 0.84375 -13.644531 0.847656 -13.726562 0.859375 -13.8125 C 0.867188 -13.894531 0.882812 -13.972656 0.90625 -14.046875 C 0.925781 -14.128906 0.953125 -14.203125 0.984375 -14.265625 C 1.035156 -14.410156 1.101562 -14.523438 1.1875 -14.609375 C 1.257812 -14.671875 1.332031 -14.71875 1.40625 -14.75 C 1.488281 -14.789062 1.5625 -14.828125 1.625 -14.859375 C 1.695312 -14.867188 1.78125 -14.875 1.875 -14.875 C 1.96875 -14.882812 2.054688 -14.890625 2.140625 -14.890625 C 2.328125 -14.890625 2.519531 -14.835938 2.71875 -14.734375 C 2.894531 -14.609375 3.03125 -14.445312 3.125 -14.25 C 3.226562 -13.976562 3.28125 -13.71875 3.28125 -13.46875 C 3.300781 -13.332031 3.316406 -13.117188 3.328125 -12.828125 C 3.335938 -12.546875 3.34375 -12.335938 3.34375 -12.203125 L 3.34375 -12.109375 C 3.363281 -11.648438 3.375 -11.210938 3.375 -10.796875 C 3.375 -10.378906 3.375 -9.925781 3.375 -9.4375 C 3.351562 -8.945312 3.34375 -8.484375 3.34375 -8.046875 C 3.34375 -7.609375 3.34375 -7.171875 3.34375 -6.734375 L 3.34375 -6.5 C 3.457031 -6.613281 3.566406 -6.71875 3.671875 -6.8125 C 3.785156 -6.914062 3.894531 -7.023438 4 -7.140625 C 4.050781 -7.179688 4.101562 -7.226562 4.15625 -7.28125 L 4.390625 -7.515625 C 4.578125 -7.691406 4.816406 -7.9375 5.109375 -8.25 C 5.398438 -8.5625 5.707031 -8.835938 6.03125 -9.078125 C 6.375 -9.328125 6.707031 -9.476562 7.03125 -9.53125 C 7.363281 -9.59375 7.640625 -9.425781 7.859375 -9.03125 C 8.054688 -8.65625 8.070312 -8.300781 7.90625 -7.96875 C 7.75 -7.644531 7.546875 -7.347656 7.296875 -7.078125 C 6.992188 -6.753906 6.765625 -6.519531 6.609375 -6.375 C 6.453125 -6.226562 6.335938 -6.125 6.265625 -6.0625 C 6.203125 -6 6.15625 -5.957031 6.125 -5.9375 C 6.101562 -5.925781 6.0625 -5.890625 6 -5.828125 C 5.9375 -5.765625 5.828125 -5.660156 5.671875 -5.515625 C 5.523438 -5.367188 5.300781 -5.132812 5 -4.8125 Z M 5 -4.8125 "/></g></g></g><g fill="#000000" fill-opacity="1"><g transform="translate(49.656533, 117.070104)"><g><path d="M 0.859375 -7.46875 C 0.859375 -7.789062 0.851562 -8.128906 0.84375 -8.484375 C 0.84375 -8.847656 0.90625 -9.179688 1.03125 -9.484375 C 1.132812 -9.742188 1.316406 -9.929688 1.578125 -10.046875 C 1.835938 -10.171875 2.09375 -10.195312 2.34375 -10.125 C 2.59375 -10.082031 2.785156 -10.003906 2.921875 -9.890625 C 3.066406 -9.785156 3.171875 -9.660156 3.234375 -9.515625 C 3.296875 -9.367188 3.332031 -9.195312 3.34375 -9 C 3.363281 -8.8125 3.378906 -8.628906 3.390625 -8.453125 C 3.523438 -8.703125 3.695312 -8.90625 3.90625 -9.0625 C 4.113281 -9.21875 4.328125 -9.34375 4.546875 -9.4375 C 4.773438 -9.53125 4.988281 -9.597656 5.1875 -9.640625 C 5.394531 -9.679688 5.554688 -9.703125 5.671875 -9.703125 C 6.203125 -9.703125 6.726562 -9.585938 7.25 -9.359375 C 7.769531 -9.128906 8.207031 -8.804688 8.5625 -8.390625 C 8.75 -8.140625 8.894531 -7.878906 9 -7.609375 C 9.101562 -7.335938 9.179688 -7.050781 9.234375 -6.75 C 9.285156 -6.457031 9.316406 -6.160156 9.328125 -5.859375 C 9.347656 -5.566406 9.363281 -5.265625 9.375 -4.953125 C 9.445312 -4.066406 9.445312 -3.179688 9.375 -2.296875 C 9.363281 -2.117188 9.359375 -1.910156 9.359375 -1.671875 C 9.359375 -1.429688 9.335938 -1.195312 9.296875 -0.96875 C 9.265625 -0.738281 9.203125 -0.535156 9.109375 -0.359375 C 9.015625 -0.191406 8.863281 -0.0859375 8.65625 -0.046875 C 8.363281 0.0234375 8.125 0.0390625 7.9375 0 C 7.75 -0.03125 7.597656 -0.09375 7.484375 -0.1875 C 7.378906 -0.28125 7.296875 -0.40625 7.234375 -0.5625 C 7.179688 -0.71875 7.132812 -0.894531 7.09375 -1.09375 C 7.0625 -1.238281 7.035156 -1.410156 7.015625 -1.609375 C 6.992188 -1.816406 6.976562 -2.023438 6.96875 -2.234375 C 6.96875 -2.441406 6.960938 -2.644531 6.953125 -2.84375 C 6.953125 -3.050781 6.953125 -3.238281 6.953125 -3.40625 C 6.953125 -3.675781 6.941406 -3.96875 6.921875 -4.28125 C 6.910156 -4.601562 6.910156 -4.90625 6.921875 -5.1875 C 6.921875 -5.84375 6.75 -6.34375 6.40625 -6.6875 C 6.070312 -7.03125 5.609375 -7.171875 5.015625 -7.109375 C 4.578125 -7.054688 4.1875 -6.878906 3.84375 -6.578125 C 3.507812 -6.273438 3.351562 -5.890625 3.375 -5.421875 C 3.375 -5.234375 3.375 -5.0625 3.375 -4.90625 C 3.375 -4.757812 3.367188 -4.609375 3.359375 -4.453125 C 3.347656 -4.296875 3.34375 -4.128906 3.34375 -3.953125 C 3.34375 -3.773438 3.34375 -3.570312 3.34375 -3.34375 C 3.34375 -2.882812 3.34375 -2.398438 3.34375 -1.890625 C 3.34375 -1.378906 3.28125 -0.96875 3.15625 -0.65625 C 3.039062 -0.3125 2.851562 -0.078125 2.59375 0.046875 C 2.332031 0.171875 2.019531 0.132812 1.65625 -0.0625 C 1.5 -0.144531 1.375 -0.257812 1.28125 -0.40625 C 1.195312 -0.550781 1.128906 -0.707031 1.078125 -0.875 C 1.023438 -1.039062 0.992188 -1.210938 0.984375 -1.390625 C 0.972656 -1.566406 0.957031 -1.734375 0.9375 -1.890625 C 0.894531 -2.347656 0.867188 -2.773438 0.859375 -3.171875 C 0.859375 -3.566406 0.859375 -3.992188 0.859375 -4.453125 Z M 0.859375 -7.46875 "/></g></g></g><g fill="#000000" fill-opacity="1"><g transform="translate(59.928224, 117.070104)"><g><path d="M 3.53125 -9.453125 C 3.988281 -9.679688 4.46875 -9.84375 4.96875 -9.9375 C 5.476562 -10.03125 5.976562 -10.050781 6.46875 -10 C 6.96875 -9.945312 7.453125 -9.816406 7.921875 -9.609375 C 8.390625 -9.398438 8.816406 -9.101562 9.203125 -8.71875 C 9.523438 -8.40625 9.800781 -8.019531 10.03125 -7.5625 C 10.269531 -7.113281 10.445312 -6.671875 10.5625 -6.234375 C 10.800781 -5.460938 10.835938 -4.6875 10.671875 -3.90625 C 10.503906 -3.125 10.21875 -2.398438 9.8125 -1.734375 C 9.613281 -1.429688 9.367188 -1.15625 9.078125 -0.90625 C 8.796875 -0.664062 8.5 -0.46875 8.1875 -0.3125 C 7.757812 -0.113281 7.300781 0.0195312 6.8125 0.09375 C 6.332031 0.164062 5.859375 0.179688 5.390625 0.140625 C 4.554688 0.0976562 3.820312 -0.109375 3.1875 -0.484375 C 2.550781 -0.859375 2.039062 -1.335938 1.65625 -1.921875 C 1.28125 -2.503906 1.03125 -3.171875 0.90625 -3.921875 C 0.789062 -4.671875 0.835938 -5.4375 1.046875 -6.21875 C 1.265625 -7.050781 1.585938 -7.726562 2.015625 -8.25 C 2.441406 -8.769531 2.945312 -9.171875 3.53125 -9.453125 Z M 4.15625 -6.65625 C 3.945312 -6.457031 3.785156 -6.210938 3.671875 -5.921875 C 3.566406 -5.628906 3.5 -5.328125 3.46875 -5.015625 C 3.445312 -4.703125 3.472656 -4.382812 3.546875 -4.0625 C 3.617188 -3.75 3.738281 -3.46875 3.90625 -3.21875 C 4.050781 -3.007812 4.300781 -2.832031 4.65625 -2.6875 C 5.019531 -2.550781 5.398438 -2.472656 5.796875 -2.453125 C 6.242188 -2.421875 6.632812 -2.539062 6.96875 -2.8125 C 7.300781 -3.082031 7.550781 -3.421875 7.71875 -3.828125 C 7.894531 -4.234375 7.976562 -4.671875 7.96875 -5.140625 C 7.957031 -5.617188 7.832031 -6.050781 7.59375 -6.4375 C 7.425781 -6.71875 7.191406 -6.925781 6.890625 -7.0625 C 6.585938 -7.195312 6.269531 -7.265625 5.9375 -7.265625 C 5.613281 -7.273438 5.289062 -7.226562 4.96875 -7.125 C 4.65625 -7.019531 4.382812 -6.863281 4.15625 -6.65625 Z M 4.15625 -6.65625 "/></g></g></g><g fill="#000000" fill-opacity="1"><g transform="translate(71.53879, 117.070104)"><g><path d="M 9.765625 -9.234375 C 9.878906 -8.960938 9.890625 -8.664062 9.796875 -8.34375 C 9.710938 -8.019531 9.550781 -7.8125 9.3125 -7.71875 C 9.1875 -7.664062 9.019531 -7.617188 8.8125 -7.578125 C 8.601562 -7.546875 8.375 -7.515625 8.125 -7.484375 C 7.882812 -7.460938 7.644531 -7.441406 7.40625 -7.421875 C 7.164062 -7.410156 6.960938 -7.40625 6.796875 -7.40625 C 6.816406 -6.988281 6.832031 -6.554688 6.84375 -6.109375 C 6.851562 -5.671875 6.863281 -5.242188 6.875 -4.828125 C 6.894531 -4.410156 6.90625 -4.007812 6.90625 -3.625 C 6.90625 -3.238281 6.898438 -2.894531 6.890625 -2.59375 C 6.890625 -2.382812 6.890625 -2.144531 6.890625 -1.875 C 6.890625 -1.601562 6.867188 -1.34375 6.828125 -1.09375 C 6.796875 -0.84375 6.742188 -0.617188 6.671875 -0.421875 C 6.597656 -0.234375 6.492188 -0.113281 6.359375 -0.0625 C 5.929688 0.113281 5.535156 0.164062 5.171875 0.09375 C 4.816406 0.0195312 4.566406 -0.128906 4.421875 -0.359375 C 4.304688 -0.535156 4.21875 -0.742188 4.15625 -0.984375 C 4.101562 -1.234375 4.066406 -1.488281 4.046875 -1.75 C 4.023438 -2.007812 4.015625 -2.257812 4.015625 -2.5 C 4.023438 -2.738281 4.03125 -2.953125 4.03125 -3.140625 C 4.050781 -3.722656 4.0625 -4.382812 4.0625 -5.125 C 4.070312 -5.875 4.078125 -6.628906 4.078125 -7.390625 L 3.765625 -7.390625 C 3.597656 -7.390625 3.382812 -7.390625 3.125 -7.390625 C 2.863281 -7.398438 2.601562 -7.421875 2.34375 -7.453125 C 2.09375 -7.492188 1.851562 -7.546875 1.625 -7.609375 C 1.40625 -7.671875 1.25 -7.765625 1.15625 -7.890625 C 1 -8.066406 0.898438 -8.257812 0.859375 -8.46875 C 0.828125 -8.675781 0.84375 -8.875 0.90625 -9.0625 C 0.96875 -9.257812 1.066406 -9.429688 1.203125 -9.578125 C 1.347656 -9.722656 1.507812 -9.816406 1.6875 -9.859375 C 1.945312 -9.921875 2.304688 -9.957031 2.765625 -9.96875 C 3.222656 -9.976562 3.65625 -9.972656 4.0625 -9.953125 C 4.039062 -10.097656 4.03125 -10.234375 4.03125 -10.359375 C 4.03125 -10.492188 4.023438 -10.625 4.015625 -10.75 C 4.003906 -10.914062 4 -11.128906 4 -11.390625 C 4 -11.648438 4.015625 -11.90625 4.046875 -12.15625 C 4.078125 -12.414062 4.132812 -12.660156 4.21875 -12.890625 C 4.3125 -13.128906 4.429688 -13.3125 4.578125 -13.4375 C 4.785156 -13.601562 5 -13.695312 5.21875 -13.71875 C 5.4375 -13.738281 5.640625 -13.707031 5.828125 -13.625 C 6.015625 -13.539062 6.171875 -13.414062 6.296875 -13.25 C 6.429688 -13.09375 6.53125 -12.914062 6.59375 -12.71875 C 6.632812 -12.550781 6.664062 -12.351562 6.6875 -12.125 C 6.71875 -11.894531 6.734375 -11.65625 6.734375 -11.40625 C 6.742188 -11.15625 6.75 -10.898438 6.75 -10.640625 C 6.75 -10.390625 6.75 -10.160156 6.75 -9.953125 L 6.96875 -9.953125 C 7.175781 -9.953125 7.421875 -9.957031 7.703125 -9.96875 C 7.984375 -9.988281 8.257812 -9.984375 8.53125 -9.953125 C 8.800781 -9.929688 9.046875 -9.867188 9.265625 -9.765625 C 9.492188 -9.660156 9.660156 -9.484375 9.765625 -9.234375 Z M 9.765625 -9.234375 "/></g></g></g><g fill="#000000" fill-opacity="1"><g transform="translate(82.249796, 117.070104)"><g><path d="M 8.078125 -2.859375 C 8.242188 -2.898438 8.410156 -2.925781 8.578125 -2.9375 C 8.753906 -2.957031 8.914062 -2.9375 9.0625 -2.875 C 9.21875 -2.820312 9.34375 -2.726562 9.4375 -2.59375 C 9.53125 -2.46875 9.578125 -2.285156 9.578125 -2.046875 C 9.578125 -1.878906 9.535156 -1.71875 9.453125 -1.5625 C 9.367188 -1.414062 9.265625 -1.28125 9.140625 -1.15625 C 9.015625 -1.03125 8.875 -0.921875 8.71875 -0.828125 C 8.570312 -0.734375 8.425781 -0.660156 8.28125 -0.609375 C 7.875 -0.421875 7.410156 -0.28125 6.890625 -0.1875 C 6.367188 -0.09375 5.828125 -0.0546875 5.265625 -0.078125 C 4.515625 -0.109375 3.796875 -0.257812 3.109375 -0.53125 C 2.421875 -0.800781 1.878906 -1.253906 1.484375 -1.890625 C 1.117188 -2.492188 0.898438 -3.171875 0.828125 -3.921875 C 0.765625 -4.679688 0.800781 -5.394531 0.9375 -6.0625 C 1.09375 -6.875 1.351562 -7.535156 1.71875 -8.046875 C 2.09375 -8.554688 2.535156 -8.960938 3.046875 -9.265625 C 3.679688 -9.628906 4.390625 -9.816406 5.171875 -9.828125 C 5.953125 -9.847656 6.695312 -9.695312 7.40625 -9.375 C 7.882812 -9.164062 8.3125 -8.878906 8.6875 -8.515625 C 9.0625 -8.160156 9.347656 -7.734375 9.546875 -7.234375 C 9.597656 -7.109375 9.640625 -6.953125 9.671875 -6.765625 C 9.710938 -6.585938 9.738281 -6.398438 9.75 -6.203125 C 9.757812 -6.003906 9.757812 -5.804688 9.75 -5.609375 C 9.738281 -5.410156 9.703125 -5.234375 9.640625 -5.078125 C 9.554688 -4.828125 9.453125 -4.628906 9.328125 -4.484375 C 9.203125 -4.347656 9.039062 -4.242188 8.84375 -4.171875 C 8.65625 -4.109375 8.421875 -4.066406 8.140625 -4.046875 C 7.867188 -4.023438 7.546875 -4.007812 7.171875 -4 C 6.835938 -3.976562 6.523438 -3.96875 6.234375 -3.96875 C 5.941406 -3.96875 5.640625 -3.972656 5.328125 -3.984375 C 5.023438 -3.992188 4.707031 -4 4.375 -4 C 4.050781 -4.007812 3.6875 -4.019531 3.28125 -4.03125 C 3.238281 -3.757812 3.273438 -3.519531 3.390625 -3.3125 C 3.515625 -3.113281 3.679688 -2.945312 3.890625 -2.8125 C 4.097656 -2.675781 4.332031 -2.570312 4.59375 -2.5 C 4.863281 -2.4375 5.125 -2.398438 5.375 -2.390625 C 5.851562 -2.359375 6.304688 -2.394531 6.734375 -2.5 C 7.171875 -2.601562 7.617188 -2.722656 8.078125 -2.859375 Z M 7.171875 -6.921875 C 6.910156 -7.234375 6.632812 -7.457031 6.34375 -7.59375 C 6.113281 -7.6875 5.875 -7.726562 5.625 -7.71875 C 5.382812 -7.71875 5.15625 -7.679688 4.9375 -7.609375 C 4.53125 -7.515625 4.1875 -7.304688 3.90625 -6.984375 C 3.882812 -6.960938 3.835938 -6.894531 3.765625 -6.78125 C 3.691406 -6.675781 3.625 -6.566406 3.5625 -6.453125 C 3.5 -6.347656 3.453125 -6.242188 3.421875 -6.140625 C 3.398438 -6.046875 3.414062 -6 3.46875 -6 L 7.578125 -6 C 7.554688 -6.195312 7.519531 -6.359375 7.46875 -6.484375 C 7.414062 -6.617188 7.316406 -6.765625 7.171875 -6.921875 Z M 7.171875 -6.921875 "/></g></g></g></svg>